<svg width="24" height="24" viewBox="0 0 24 24" fill="none" xmlns="http://www.w3.org/2000/svg">
<path fill-rule="evenodd" clip-rule="evenodd" d="M6.46108 21.0356L1.80863 22.1976L2.97471 17.5613L16.4799 4.10277L19.9663 7.57708L6.46108 21.0356Z" fill="rgba(10,0,7,0)"/>
<path fill-rule="evenodd" clip-rule="evenodd" d="M22.2985 3C22.4174 3.29249 22.4769 3.6087 22.4769 3.94862C22.4769 4.24901 22.4373 4.51383 22.358 4.74308C22.2866 4.97233 22.1834 5.18577 22.0486 5.3834C21.9217 5.58103 21.7709 5.77075 21.5964 5.95257C21.4219 6.13439 21.2355 6.32016 21.0372 6.50988L17.5508 3.03557C17.7491 2.83794 17.9355 2.64822 18.1101 2.4664C18.2846 2.28458 18.467 2.12253 18.6574 1.98024C18.8557 1.83794 19.0699 1.72727 19.2999 1.64822C19.53 1.56126 19.7957 1.51779 20.0972 1.51779C20.4462 1.51779 20.7675 1.58103 21.061 1.70751C21.3545 1.82609 21.6044 1.99605 21.8106 2.21739C22.0248 2.43874 22.1874 2.6996 22.2985 3Z" fill="rgba(10,0,7,0)"/>
<path fill-rule="evenodd" clip-rule="evenodd" d="M22.7506 6.96047C23.1552 6.55731 23.4646 6.09091 23.6787 5.56126C23.8929 5.02372 24 4.47036 24 3.90119C24 3.35573 23.9008 2.84585 23.7025 2.37154C23.5042 1.89723 23.2266 1.48617 22.8696 1.13834C22.5206 0.782609 22.1081 0.505929 21.6321 0.3083C21.1562 0.102767 20.6445 0 20.0972 0C19.5736 0 19.062 0.102767 18.5622 0.3083C18.0704 0.505929 17.6381 0.790514 17.2652 1.16206L16.468 1.95652L17.5508 3.03557C17.7491 2.83794 17.9355 2.64822 18.1101 2.4664C18.2846 2.28458 18.467 2.12253 18.6574 1.98024C18.8557 1.83794 19.0699 1.72727 19.2999 1.64822C19.53 1.56126 19.7957 1.51779 20.0972 1.51779C20.4462 1.51779 20.7675 1.58103 21.061 1.70751C21.3545 1.82609 21.6044 1.99605 21.8106 2.21739C22.0248 2.43874 22.1874 2.6996 22.2985 3C22.4174 3.29249 22.4769 3.6087 22.4769 3.94862C22.4769 4.24901 22.4373 4.51383 22.358 4.74308C22.2866 4.97233 22.1834 5.18577 22.0486 5.3834C21.9217 5.58103 21.7709 5.77075 21.5964 5.95257C21.4219 6.13439 21.2355 6.32016 21.0372 6.50988L22.12 7.58893L22.7506 6.96047ZM21.0491 8.65613L7.54388 22.1146C7.44869 22.2095 7.33763 22.2885 7.21071 22.3518C7.09172 22.415 6.9648 22.4664 6.82995 22.5059L0.94001 23.9763C0.860684 23.9921 0.80119 24 0.761527 24C0.55528 24 0.376797 23.9289 0.226078 23.7866C0.0753594 23.6364 0 23.4585 0 23.253C0 23.2055 0.00793257 23.1423 0.0237977 23.0632L1.49926 17.1937C1.53892 17.0593 1.59048 16.9328 1.65394 16.8142C1.7174 16.6877 1.79673 16.5771 1.89192 16.4822L15.3971 3.02372L16.4799 4.10277L2.97471 17.5613L1.80863 22.1976L6.46108 21.0356L19.9663 7.57708L21.0491 8.65613Z" fill="rgba(10,0,7,0)"/>
</svg>
