<svg width="24" height="24" viewBox="0 0 24 24" fill="none" xmlns="http://www.w3.org/2000/svg">
<path fill-rule="evenodd" clip-rule="evenodd" d="M7.54388 22.1146C7.44869 22.2095 7.33763 22.2885 7.21071 22.3518C7.09172 22.415 6.9648 22.4664 6.82995 22.5059L0.94001 23.9763C0.860684 23.9921 0.80119 24 0.761527 24C0.55528 24 0.376797 23.9289 0.226078 23.7866C0.0753594 23.6364 0 23.4585 0 23.253C0 23.2055 0.00793257 23.1423 0.0237977 23.0632L1.49926 17.1937C1.53892 17.0593 1.59048 16.9328 1.65394 16.8142C1.7174 16.6877 1.79673 16.5771 1.89192 16.4822L15.3971 3.02372L16.4799 4.10277L19.9663 7.57708L21.0491 8.65613L7.54388 22.1146Z" fill="rgba(10,0,7,0)"/>
<path fill-rule="evenodd" clip-rule="evenodd" d="M22.7506 6.96047C23.1552 6.55731 23.4646 6.09091 23.6787 5.56126C23.8929 5.02372 24 4.47036 24 3.90119C24 3.35573 23.9008 2.84585 23.7025 2.37154C23.5042 1.89723 23.2266 1.48617 22.8696 1.13834C22.5206 0.782609 22.1081 0.505929 21.6321 0.3083C21.1562 0.102767 20.6445 0 20.0972 0C19.5736 0 19.062 0.102767 18.5622 0.3083C18.0704 0.505929 17.6381 0.790514 17.2652 1.16206L16.468 1.95652L17.5508 3.03557L21.0372 6.50988L22.12 7.58893L22.7506 6.96047Z" fill="rgba(10,0,7,0)"/>
</svg>
