<svg width="23" height="24" viewBox="0 0 23 24" fill="none" xmlns="http://www.w3.org/2000/svg">
<path fill-rule="evenodd" clip-rule="evenodd" d="M3.1625 4.5H19.8375L17.8729 21.1758C17.849 21.3633 17.7931 21.5391 17.7052 21.7031C17.6174 21.8672 17.5056 22.0078 17.3698 22.125C17.234 22.2422 17.0783 22.3359 16.9026 22.4062C16.7269 22.4688 16.5432 22.5 16.3516 22.5H6.64844C6.24913 22.5 5.90573 22.3789 5.61823 22.1367C5.33872 21.8867 5.175 21.5664 5.12708 21.1758L3.1625 4.5ZM8.43333 17.25V9.75C8.43333 9.54688 8.5092 9.37109 8.66094 9.22266C8.81267 9.07422 8.99236 9 9.2 9C9.40764 9 9.58733 9.07422 9.73906 9.22266C9.8908 9.37109 9.96667 9.54688 9.96667 9.75V17.25C9.96667 17.4531 9.8908 17.6289 9.73906 17.7773C9.58733 17.9258 9.40764 18 9.2 18C8.99236 18 8.81267 17.9258 8.66094 17.7773C8.5092 17.6289 8.43333 17.4531 8.43333 17.25ZM13.0333 17.25V9.75C13.0333 9.54688 13.1092 9.37109 13.2609 9.22266C13.4127 9.07422 13.5924 9 13.8 9C14.0076 9 14.1873 9.07422 14.3391 9.22266C14.4908 9.37109 14.5667 9.54688 14.5667 9.75V17.25C14.5667 17.4531 14.4908 17.6289 14.3391 17.7773C14.1873 17.9258 14.0076 18 13.8 18C13.5924 18 13.4127 17.9258 13.2609 17.7773C13.1092 17.6289 13.0333 17.4531 13.0333 17.25Z" fill="rgba(10,0,7,0)"/>
<path fill-rule="evenodd" clip-rule="evenodd" d="M23 3.75C23 3.92188 22.9641 4.05859 22.8922 4.16016C22.8283 4.26172 22.7405 4.33984 22.6286 4.39453C22.5168 4.44141 22.3931 4.47266 22.2573 4.48828C22.1215 4.50391 21.9818 4.51172 21.838 4.51172H21.5984C21.5186 4.50391 21.4467 4.5 21.3828 4.5L19.3943 21.3398C19.3464 21.7148 19.2345 22.0664 19.0589 22.3945C18.8832 22.7148 18.6595 22.9961 18.388 23.2383C18.1165 23.4727 17.805 23.6602 17.4536 23.8008C17.1023 23.9336 16.7349 24 16.3516 24H6.64844C6.2651 24 5.89774 23.9336 5.54635 23.8008C5.19497 23.6602 4.88351 23.4727 4.61198 23.2383C4.34045 22.9961 4.11684 22.7148 3.94115 22.3945C3.76545 22.0664 3.65365 21.7148 3.60573 21.3398L1.61719 4.5H1.4974L1.25781 4.51172H1.13802C1.00226 4.51172 0.866493 4.50391 0.730729 4.48828C0.594965 4.47266 0.471181 4.4375 0.359375 4.38281C0.255556 4.32812 0.167708 4.25 0.0958333 4.14844C0.0319444 4.04688 0 3.91406 0 3.75C0 3.54688 0.0758681 3.37109 0.227604 3.22266C0.37934 3.07422 0.559028 3 0.766667 3H7.73854C7.8184 2.57031 7.97413 2.17188 8.20573 1.80469C8.44531 1.4375 8.73281 1.12109 9.06823 0.855469C9.41163 0.582031 9.79097 0.371094 10.2063 0.222656C10.6215 0.0742188 11.0528 0 11.5 0C11.9472 0 12.3785 0.0742188 12.7937 0.222656C13.209 0.371094 13.5844 0.582031 13.9198 0.855469C14.2632 1.12109 14.5507 1.4375 14.7823 1.80469C15.0219 2.17188 15.1816 2.57031 15.2615 3H22.2333C22.441 3 22.6207 3.07422 22.7724 3.22266C22.9241 3.37109 23 3.54688 23 3.75ZM13.6682 3C13.5884 2.77344 13.4766 2.57031 13.3328 2.39062C13.1891 2.20312 13.0214 2.04297 12.8297 1.91016C12.638 1.77734 12.4304 1.67578 12.2068 1.60547C11.9832 1.53516 11.7476 1.5 11.5 1.5C11.2524 1.5 11.0168 1.53516 10.7932 1.60547C10.5696 1.67578 10.362 1.77734 10.1703 1.91016C9.97865 2.04297 9.81094 2.20312 9.66719 2.39062C9.52344 2.57031 9.41163 2.77344 9.33177 3H13.6682ZM3.1625 4.5L5.12708 21.1758C5.175 21.5664 5.33872 21.8867 5.61823 22.1367C5.90573 22.3789 6.24913 22.5 6.64844 22.5H16.3516C16.5432 22.5 16.7269 22.4688 16.9026 22.4062C17.0783 22.3359 17.234 22.2422 17.3698 22.125C17.5056 22.0078 17.6174 21.8672 17.7052 21.7031C17.7931 21.5391 17.849 21.3633 17.8729 21.1758L19.8375 4.5H3.1625Z" fill="rgba(10,0,7,0)"/>
</svg>
