<svg width="23" height="24" viewBox="0 0 23 24" fill="none" xmlns="http://www.w3.org/2000/svg">
<path fill-rule="evenodd" clip-rule="evenodd" d="M22.8922 4.16016C22.9641 4.05859 23 3.92188 23 3.75C23 3.54688 22.9241 3.37109 22.7724 3.22266C22.6207 3.07422 22.441 3 22.2333 3H15.2615C15.1816 2.57031 15.0219 2.17188 14.7823 1.80469C14.5507 1.4375 14.2632 1.12109 13.9198 0.855469C13.5844 0.582031 13.209 0.371094 12.7937 0.222656C12.3785 0.0742188 11.9472 0 11.5 0C11.0528 0 10.6215 0.0742188 10.2063 0.222656C9.79097 0.371094 9.41163 0.582031 9.06823 0.855469C8.73281 1.12109 8.44531 1.4375 8.20573 1.80469C7.97413 2.17188 7.8184 2.57031 7.73854 3H0.766667C0.559028 3 0.37934 3.07422 0.227604 3.22266C0.0758681 3.37109 0 3.54688 0 3.75C0 3.91406 0.0319444 4.04688 0.0958333 4.14844C0.167708 4.25 0.255556 4.32812 0.359375 4.38281C0.471181 4.4375 0.594965 4.47266 0.730729 4.48828C0.866493 4.50391 1.00226 4.51172 1.13802 4.51172H1.25781L1.4974 4.5H1.61719L3.60573 21.3398C3.65365 21.7148 3.76545 22.0664 3.94115 22.3945C4.11684 22.7148 4.34045 22.9961 4.61198 23.2383C4.88351 23.4727 5.19497 23.6602 5.54635 23.8008C5.89774 23.9336 6.2651 24 6.64844 24H16.3516C16.7349 24 17.1023 23.9336 17.4536 23.8008C17.805 23.6602 18.1165 23.4727 18.388 23.2383C18.6595 22.9961 18.8832 22.7148 19.0589 22.3945C19.2346 22.0664 19.3464 21.7148 19.3943 21.3398L21.3828 4.5C21.4467 4.5 21.5186 4.50391 21.5984 4.51172H21.838C21.9818 4.51172 22.1215 4.50391 22.2573 4.48828C22.3931 4.47266 22.5168 4.44141 22.6286 4.39453C22.7405 4.33984 22.8283 4.26172 22.8922 4.16016ZM13.3328 2.39062C13.4766 2.57031 13.5884 2.77344 13.6682 3H9.33177C9.41163 2.77344 9.52344 2.57031 9.66719 2.39062C9.81094 2.20312 9.97865 2.04297 10.1703 1.91016C10.362 1.77734 10.5696 1.67578 10.7932 1.60547C11.0168 1.53516 11.2524 1.5 11.5 1.5C11.7476 1.5 11.9832 1.53516 12.2068 1.60547C12.4304 1.67578 12.638 1.77734 12.8297 1.91016C13.0214 2.04297 13.1891 2.20312 13.3328 2.39062ZM8.43333 9.75V17.25C8.43333 17.4531 8.5092 17.6289 8.66094 17.7773C8.81267 17.9258 8.99236 18 9.2 18C9.40764 18 9.58733 17.9258 9.73906 17.7773C9.8908 17.6289 9.96667 17.4531 9.96667 17.25V9.75C9.96667 9.54688 9.8908 9.37109 9.73906 9.22266C9.58733 9.07422 9.40764 9 9.2 9C8.99236 9 8.81267 9.07422 8.66094 9.22266C8.5092 9.37109 8.43333 9.54688 8.43333 9.75ZM13.0333 9.75V17.25C13.0333 17.4531 13.1092 17.6289 13.2609 17.7773C13.4127 17.9258 13.5924 18 13.8 18C14.0076 18 14.1873 17.9258 14.3391 17.7773C14.4908 17.6289 14.5667 17.4531 14.5667 17.25V9.75C14.5667 9.54688 14.4908 9.37109 14.3391 9.22266C14.1873 9.07422 14.0076 9 13.8 9C13.5924 9 13.4127 9.07422 13.2609 9.22266C13.1092 9.37109 13.0333 9.54688 13.0333 9.75Z" fill="rgba(10,0,7,0)"/>
</svg>
