<svg width="24" height="24" viewBox="0 0 24 24" fill="none" xmlns="http://www.w3.org/2000/svg">
<path fill-rule="evenodd" clip-rule="evenodd" d="M0.222656 23.7773C0.371094 23.9258 0.546875 24 0.75 24H3.75C3.95312 24 4.12891 23.9258 4.27734 23.7773C4.42578 23.6289 4.5 23.4531 4.5 23.25C4.5 23.0469 4.42578 22.8711 4.27734 22.7227C4.12891 22.5742 3.95312 22.5 3.75 22.5H0.75C0.546875 22.5 0.371094 22.5742 0.222656 22.7227C0.0742188 22.8711 0 23.0469 0 23.25C0 23.4531 0.0742188 23.6289 0.222656 23.7773Z" fill="rgba(10,0,7,0)"/>
<path fill-rule="evenodd" clip-rule="evenodd" d="M12.7266 18.6914L13.7959 19.7549L23.3438 10.207C23.5547 9.99609 23.7148 9.75391 23.8242 9.48047C23.9414 9.19922 24 8.91016 24 8.61328C24 7.98828 23.7812 7.45703 23.3438 7.01953L16.9805 0.65625C16.543 0.21875 16.0117 0 15.3867 0C15.0898 0 14.8008 0.0585938 14.5195 0.175781C14.2461 0.285156 14.0039 0.445312 13.793 0.65625L4.24219 10.207L5.30859 11.2734L12.7266 18.6914Z" fill="rgba(10,0,7,0)"/>
<path fill-rule="evenodd" clip-rule="evenodd" d="M4.24219 12.3281L3.18164 11.2676L0.65625 13.793C0.453125 13.9961 0.292969 14.2383 0.175781 14.5195C0.0585938 14.8008 0 15.0898 0 15.3867C0 15.6836 0.0585938 15.9727 0.175781 16.2539C0.292969 16.5352 0.453125 16.7773 0.65625 16.9805L7.01953 23.3438C7.23047 23.5547 7.47266 23.7188 7.74609 23.8359C8.01953 23.9453 8.30469 24 8.60156 24H23.25C23.4531 24 23.6289 23.9258 23.7773 23.7773C23.9258 23.6289 24 23.4531 24 23.25C24 23.0469 23.9258 22.8711 23.7773 22.7227C23.6289 22.5742 23.4531 22.5 23.25 22.5H11.0508L12.7324 20.8184L11.6719 19.7578L4.24219 12.3281Z" fill="rgba(10,0,7,0)"/>
</svg>
