<svg width="24" height="24" viewBox="0 0 24 24" fill="none" xmlns="http://www.w3.org/2000/svg">
<path fill-rule="evenodd" clip-rule="evenodd" d="M9.14062 22.2891C8.99219 22.4375 8.81641 22.5117 8.61328 22.5117C8.41016 22.5117 8.23438 22.4375 8.08594 22.2891L1.71094 15.9141C1.64062 15.8438 1.58594 15.7617 1.54688 15.668C1.51562 15.5742 1.5 15.4805 1.5 15.3867C1.5 15.1758 1.57031 15 1.71094 14.8594L4.24219 12.3281L11.6719 19.7578L9.14062 22.2891Z" fill="rgba(10,0,7,0)"/>
<path fill-rule="evenodd" clip-rule="evenodd" d="M22.2773 8.08594C22.4258 8.23438 22.5 8.41016 22.5 8.61328C22.5 8.81641 22.4258 8.99219 22.2773 9.14062L12.7266 18.6914L5.30859 11.2734L14.8594 1.72266C15.0078 1.57422 15.1836 1.5 15.3867 1.5C15.5898 1.5 15.7656 1.57422 15.9141 1.72266L22.2773 8.08594Z" fill="rgba(10,0,7,0)"/>
<path fill-rule="evenodd" clip-rule="evenodd" d="M7.74609 23.8359C8.01953 23.9453 8.30469 24 8.60156 24H23.25C23.4531 24 23.6289 23.9258 23.7773 23.7773C23.9258 23.6289 24 23.4531 24 23.25C24 23.0469 23.9258 22.8711 23.7773 22.7227C23.6289 22.5742 23.4531 22.5 23.25 22.5H11.0508L12.7324 20.8184L11.6719 19.7578L9.14062 22.2891C8.99219 22.4375 8.81641 22.5117 8.61328 22.5117C8.41016 22.5117 8.23438 22.4375 8.08594 22.2891L1.71094 15.9141C1.64062 15.8438 1.58594 15.7617 1.54688 15.668C1.51562 15.5742 1.5 15.4805 1.5 15.3867C1.5 15.1758 1.57031 15 1.71094 14.8594L4.24219 12.3281L3.18164 11.2676L0.65625 13.793C0.453125 13.9961 0.292969 14.2383 0.175781 14.5195C0.0585938 14.8008 0 15.0898 0 15.3867C0 15.6836 0.0585938 15.9727 0.175781 16.2539C0.292969 16.5352 0.453125 16.7773 0.65625 16.9805L7.01953 23.3438C7.23047 23.5547 7.47266 23.7188 7.74609 23.8359ZM12.7266 18.6914L22.2773 9.14062C22.4258 8.99219 22.5 8.81641 22.5 8.61328C22.5 8.41016 22.4258 8.23438 22.2773 8.08594L15.9141 1.72266C15.7656 1.57422 15.5898 1.5 15.3867 1.5C15.1836 1.5 15.0078 1.57422 14.8594 1.72266L5.30859 11.2734L4.24219 10.207L13.793 0.65625C14.0039 0.445312 14.2461 0.285156 14.5195 0.175781C14.8008 0.0585938 15.0898 0 15.3867 0C16.0117 0 16.543 0.21875 16.9805 0.65625L23.3438 7.01953C23.7812 7.45703 24 7.98828 24 8.61328C24 8.91016 23.9414 9.19922 23.8242 9.48047C23.7148 9.75391 23.5547 9.99609 23.3438 10.207L13.7959 19.7549L12.7266 18.6914ZM0.222656 23.7773C0.371094 23.9258 0.546875 24 0.75 24H3.75C3.95312 24 4.12891 23.9258 4.27734 23.7773C4.42578 23.6289 4.5 23.4531 4.5 23.25C4.5 23.0469 4.42578 22.8711 4.27734 22.7227C4.12891 22.5742 3.95312 22.5 3.75 22.5H0.75C0.546875 22.5 0.371094 22.5742 0.222656 22.7227C0.0742188 22.8711 0 23.0469 0 23.25C0 23.4531 0.0742188 23.6289 0.222656 23.7773Z" fill="rgba(10,0,7,0)"/>
</svg>
