<svg width="16" height="15" viewBox="0 0 16 15" fill="none" xmlns="http://www.w3.org/2000/svg">
<path d="M2.59805 4.49955L7.7942 7.49955M7.7942 7.49955L12.9904 10.4995M7.7942 7.49955L2.59805 10.4995M7.7942 7.49955L12.9904 4.49955M7.7942 7.49955L7.79421 3.49954M7.7942 7.49955L7.79417 11.4996M7.79417 1.5L7.79421 3.49954M7.79421 3.49954L6.18652 2.42774M7.79421 3.49954L9.40191 2.42775M7.79417 13.5V11.4996M7.79417 11.4996L9.40186 12.5713M7.79417 11.4996L6.18647 12.5713" stroke="rgba(10,0,7,0)" stroke-width="0.85" stroke-linecap="round"/>
<path d="M7.79462 1.49977L7.79462 7.49977M7.79462 7.49977L7.79462 13.4998M7.79462 7.49977L2.59847 4.49977M7.79462 7.49977L12.9908 10.4998M7.79462 7.49977L11.2587 5.49977M7.79462 7.49977L4.33049 9.49975M12.9904 4.49997L11.2587 5.49977M11.2587 5.49977L11.3831 3.57157M11.2587 5.49977L12.9908 6.35619M2.59806 10.5L4.33049 9.49975M4.33049 9.49975L4.20614 11.4279M4.33049 9.49975L2.59845 8.64333" stroke="rgba(10,0,7,0)" stroke-width="0.85" stroke-linecap="round"/>
<path d="M12.9908 4.50023L7.79463 7.50023M7.79463 7.50023L2.59848 10.5002M7.79463 7.50023L7.79464 1.50023M7.79463 7.50023L7.79464 13.5002M7.79463 7.50023L11.2587 9.50023M7.79463 7.50023L4.33054 5.50019M12.9904 10.5L11.2587 9.50023M11.2587 9.50023L12.9908 8.64383M11.2587 9.50023L11.3831 11.4284M2.59811 4.49997L4.33054 5.50019M4.33054 5.50019L2.5985 6.3566M4.33054 5.50019L4.2062 3.57199" stroke="rgba(10,0,7,0)" stroke-width="0.85" stroke-linecap="round"/>
<path d="M5.79709 4.77002C5.78011 4.52112 6.05667 4.36144 6.26373 4.5006L7.8302 5.55335L9.39668 4.5006C9.60374 4.36144 9.8803 4.52112 9.86332 4.77002L9.73485 6.653L11.4298 7.48323C11.6538 7.59297 11.6538 7.91232 11.4298 8.02206L9.73485 8.85229L9.86332 10.7353C9.8803 10.9842 9.60374 11.1438 9.39668 11.0047L7.8302 9.95194L6.26373 11.0047C6.05667 11.1438 5.78011 10.9842 5.79709 10.7353L5.92556 8.85229L4.23061 8.02206C4.00657 7.91232 4.00657 7.59297 4.23061 7.48323L5.92556 6.653L5.79709 4.77002Z" fill="rgba(10,0,7,0)"/>
</svg>
