<svg width="24" height="24" viewBox="0 0 24 24" fill="none" xmlns="http://www.w3.org/2000/svg">
<g clip-path="url(#clip0_639_6576)">
<path d="M2.26318 6.5492L11.7894 12.0492M11.7894 12.0492L21.3157 17.5492M11.7894 12.0492L2.26318 17.5492M11.7894 12.0492L21.3157 6.5492M11.7894 12.0492L11.7894 4.71586M11.7894 12.0492L11.7894 19.3825M11.7894 1.05005L11.7894 4.71586M11.7894 4.71586L8.84202 2.75091M11.7894 4.71586L14.7369 2.75093M11.7894 23.05V19.3825M11.7894 19.3825L14.7368 21.3475M11.7894 19.3825L8.84193 21.3474" stroke="rgba(10,0,7,0)" stroke-width="1.85" stroke-linecap="round"/>
<path d="M11.7901 1.04963L11.7901 12.0496M11.7901 12.0496L11.7901 23.0496M11.7901 12.0496L2.26383 6.54961M11.7901 12.0496L21.3163 17.5496M11.7901 12.0496L18.1409 8.38293M11.7901 12.0496L5.4392 15.7162M21.3156 6.54998L18.1409 8.38293M18.1409 8.38293L18.3689 4.84792M18.1409 8.38293L21.3163 9.95303M2.26308 17.55L5.4392 15.7162M5.4392 15.7162L5.21122 19.2512M5.4392 15.7162L2.2638 14.1461" stroke="rgba(10,0,7,0)" stroke-width="1.85" stroke-linecap="round"/>
<path d="M21.3165 6.55047L11.7903 12.0505M11.7903 12.0505L2.264 17.5504M11.7903 12.0505L11.7903 1.05049M11.7903 12.0505L11.7903 23.0504M11.7903 12.0505L18.1411 15.7171M11.7903 12.0505L5.43943 8.38374M21.3158 17.55L18.1411 15.7171M18.1411 15.7171L21.3165 14.1471M18.1411 15.7171L18.3691 19.2522M2.26331 6.55001L5.43943 8.38374M5.43943 8.38374L2.26403 9.95381M5.43943 8.38374L5.21148 4.84871" stroke="rgba(10,0,7,0)" stroke-width="1.85" stroke-linecap="round"/>
<path d="M8.09322 6.53584C8.07624 6.28695 8.3528 6.12727 8.55986 6.26643L11.8553 8.48115L15.1508 6.26643C15.3579 6.12727 15.6344 6.28695 15.6174 6.53585L15.3472 10.4972L18.9129 12.2438C19.137 12.3535 19.137 12.6729 18.9129 12.7826L15.3472 14.5292L15.6174 18.4905C15.6344 18.7394 15.3579 18.8991 15.1508 18.7599L11.8553 16.5452L8.55986 18.7599C8.3528 18.8991 8.07624 18.7394 8.09322 18.4905L8.36349 14.5292L4.79775 12.7826C4.5737 12.6729 4.5737 12.3535 4.79775 12.2438L8.36349 10.4972L8.09322 6.53584Z" fill="rgba(10,0,7,0)"/>
</g>
<defs>
<clipPath id="clip0_639_6576">
<rect width="24" height="24" fill="rgba(10,0,7,0)"/>
</clipPath>
</defs>
</svg>
