<svg width="26" height="24" viewBox="0 0 26 24" fill="none" xmlns="http://www.w3.org/2000/svg">
<path fill-rule="evenodd" clip-rule="evenodd" d="M-0.00108623 2.12061C-0.000542872 2.14095 1.73133e-06 2.16134 1.73133e-06 2.18173V1.99991C-0.00324727 2.0397 -0.00216922 2.08006 -0.00108623 2.12061ZM2.11068 -0.00102517C2.07352 -0.00195512 2.03653 -0.00288108 2 -9.12058e-05H2.16667C2.14799 -9.12058e-05 2.12931 -0.000558689 2.11068 -0.00102517ZM0.159779 16.7845C0.237745 16.8496 0.338394 16.8888 0.448278 16.8888V17.2618C0.33115 17.118 0.233627 16.9575 0.159779 16.7845Z" fill="rgba(10,0,7,0)"/>
<path fill-rule="evenodd" clip-rule="evenodd" d="M15.6897 5.33324C9.89203 5.33324 5.37931 9.61039 5.37931 14.6666C5.37931 15.2441 5.4382 15.8115 5.55115 16.3635C5.58731 16.5403 5.62901 16.7154 5.6761 16.8888C5.7791 17.2681 5.90788 17.6391 6.06076 17.9999C6.09233 18.0744 6.12493 18.1485 6.15855 18.2221C7.69004 21.5768 11.3259 23.9999 15.6897 23.9999C21.4873 23.9999 26 19.7228 26 14.6666C26 11.0212 23.6542 7.78072 20.1724 6.25622C20.1152 6.23119 20.0578 6.20662 20 6.18252C19.6216 6.02468 19.2303 5.88693 18.8276 5.7709C18.6919 5.7318 18.5549 5.69517 18.4167 5.66107C17.5514 5.44762 16.6377 5.33324 15.6897 5.33324Z" fill="rgba(10,0,7,0)"/>
<path fill-rule="evenodd" clip-rule="evenodd" d="M2.11068 -0.00102517C2.12931 -0.000558689 2.14799 -9.12058e-05 2.16667 -9.12058e-05H2C2.03653 -0.00288108 2.07352 -0.00195512 2.11068 -0.00102517ZM1.73133e-06 1.99991C-0.00324727 2.0397 -0.00216922 2.08006 -0.00108623 2.12061C-0.000542872 2.14095 1.73133e-06 2.16134 1.73133e-06 2.18173V1.99991Z" fill="rgba(10,0,7,0)"/>
<path fill-rule="evenodd" clip-rule="evenodd" d="M1.73133e-06 1.99991V2.18173V14.1817V15.9999C1.73133e-06 16.2784 0.0569278 16.5436 0.159779 16.7845C0.237745 16.8496 0.338394 16.8888 0.448278 16.8888V17.2618C0.815002 17.7122 1.37391 17.9999 2 17.9999H4.61488C4.4848 17.6377 4.37534 17.267 4.28778 16.8888C4.24759 16.7152 4.21201 16.5401 4.18117 16.3635C4.08464 15.8109 4.03448 15.2441 4.03448 14.6666C4.03448 8.77554 9.25268 3.99991 15.6897 3.99991C16.6287 3.99991 17.5419 4.10155 18.4167 4.29347C18.5546 4.32373 18.6916 4.35624 18.8276 4.39095C19.2275 4.49302 19.6187 4.61411 20 4.75309V1.99991C20 1.21427 19.547 0.53443 18.888 0.207341C18.6204 0.0745594 18.3189 -9.12058e-05 18 -9.12058e-05H16.6983H2.16667H2C0.895432 -9.12058e-05 1.73133e-06 0.895339 1.73133e-06 1.99991Z" fill="rgba(10,0,7,0)"/>
</svg>
