<svg width="26" height="24" viewBox="0 0 26 24" fill="none" xmlns="http://www.w3.org/2000/svg">
<path fill-rule="evenodd" clip-rule="evenodd" d="M18.5623 18.2127C19.4666 18.1218 20.1724 17.365 20.1724 16.4444V6.25631C23.6542 7.78081 26 11.0213 26 14.6667C26 19.7228 21.4873 24 15.6897 24C11.3259 24 7.69004 21.5768 6.15855 18.2222H18.3793L18.5623 18.2127Z" fill="rgba(10,0,7,0)"/>
<path fill-rule="evenodd" clip-rule="evenodd" d="M15.6897 5.33333C16.6377 5.33333 17.5514 5.44771 18.4167 5.66116C18.5549 5.69527 18.6919 5.7319 18.8276 5.77099V16.4444C18.8276 16.6899 18.6269 16.8889 18.3793 16.8889H5.67609C5.62901 16.7155 5.58731 16.5404 5.55115 16.3636C5.43819 15.8116 5.37931 15.2442 5.37931 14.6667C5.37931 9.61049 9.89203 5.33333 15.6897 5.33333Z" fill="rgba(10,0,7,0)"/>
<path d="M5.67609 16.8889C5.7791 17.2682 5.90787 17.6392 6.06076 18C6.09233 18.0745 6.12493 18.1486 6.15855 18.2222H18.3793V16.8889H5.67609Z" fill="rgba(10,0,7,0)"/>
<path d="M20.1724 6.25631C20.1152 6.23128 20.0578 6.20671 20 6.18261C19.6216 6.02477 19.2303 5.88702 18.8276 5.77099V16.4444C18.8276 16.6899 18.6269 16.8889 18.3793 16.8889V18.2222L18.5623 18.2127C19.4666 18.1218 20.1724 17.365 20.1724 16.4444V6.25631Z" fill="rgba(10,0,7,0)"/>
<path fill-rule="evenodd" clip-rule="evenodd" d="M15.6897 4C9.25268 4 4.03448 8.77563 4.03448 14.6667C4.03448 15.2442 4.08463 15.811 4.18117 16.3636H2.16667C0.97005 16.3636 0 15.3868 0 14.1818V2.18182C0 0.976833 0.97005 0 2.16667 0H16.6983C17.8949 0 18.8649 0.976833 18.8649 2.18182L18.8276 2.3578L18.4167 4.29356C17.5419 4.10164 16.6287 4 15.6897 4Z" fill="rgba(10,0,7,0)"/>
<path fill-rule="evenodd" clip-rule="evenodd" d="M2.16667 0C0.97005 0 0 0.976833 0 2.18182V14.1818C0 15.3868 0.97005 16.3636 2.16667 16.3636H4.18117C4.08463 15.811 4.03448 15.2442 4.03448 14.6667C4.03448 8.77563 9.25268 4 15.6897 4C16.6287 4 17.5419 4.10164 18.4167 4.29356L18.8276 2.3578L18.8649 2.18182C18.8649 0.976833 17.8949 0 16.6983 0H2.16667ZM18.4167 5.66116C17.5514 5.44771 16.6377 5.33333 15.6897 5.33333C9.89203 5.33333 5.37931 9.61049 5.37931 14.6667C5.37931 15.2442 5.43819 15.8116 5.55115 16.3636H16.25C17.4466 16.3636 18.4167 15.3868 18.4167 14.1818V5.66116Z" fill="rgba(10,0,7,0)"/>
<path d="M18.8276 4.39104V2.3578L18.4167 4.29356C18.5546 4.32383 18.6916 4.35633 18.8276 4.39104Z" fill="rgba(10,0,7,0)"/>
<path fill-rule="evenodd" clip-rule="evenodd" d="M2 0C0.895431 0 0 0.89543 0 2V16C0 17.1046 0.895431 18 2 18H4.61488C4.4848 17.6378 4.37534 17.267 4.28778 16.8889C4.24759 16.7153 4.21201 16.5402 4.18117 16.3636C4.08463 15.811 4.03448 15.2442 4.03448 14.6667C4.03448 8.77563 9.25268 4 15.6897 4C16.6287 4 17.5419 4.10164 18.4167 4.29356C18.5546 4.32383 18.6916 4.35633 18.8276 4.39104C19.2275 4.49311 19.6187 4.6142 20 4.75318V2C20 0.895431 19.1046 0 18 0H2ZM6.06076 18H18C19.1046 18 20 17.1046 20 16V6.18261C19.6216 6.02477 19.2303 5.88702 18.8276 5.77099C18.6919 5.7319 18.5549 5.69527 18.4167 5.66116C17.5514 5.44771 16.6377 5.33333 15.6897 5.33333C9.89203 5.33333 5.37931 9.61049 5.37931 14.6667C5.37931 15.2442 5.43819 15.8116 5.55115 16.3636C5.58731 16.5404 5.62901 16.7155 5.67609 16.8889C5.7791 17.2682 5.90787 17.6392 6.06076 18Z" fill="rgba(10,0,7,0)"/>
</svg>
