<svg width="24" height="24" viewBox="0 0 24 24" fill="none" xmlns="http://www.w3.org/2000/svg">
<path fill-rule="evenodd" clip-rule="evenodd" d="M19.0667 16.3103L24 16.1185V21.3024C23.9998 21.7232 23.6812 22.0737 23.2667 22.1086L19.0667 22.4627V16.3103ZM17.4667 22.5976L10.2667 23.2047V16.6528L17.4667 16.3725V22.5976ZM8.66667 15.0962L0 15.4335V8.02484L8.66667 8.36207V15.0962ZM17.4667 14.7537L10.2667 15.0341V8.42425L17.4667 8.70457V14.7537ZM24 14.4987L19.0667 14.6916V8.76675L24 8.95856V14.4987ZM17.4667 7.08479L10.2667 6.80446V0.795347L17.4667 1.40237V7.08479ZM0.866667 23.9972C0.400405 24.0364 0.000192261 23.6643 0 23.191V17.0522L8.66667 16.715V23.3395L0.866667 23.9972ZM23.2667 1.89136C23.6812 1.92631 23.9998 2.27678 24 2.69757V7.33877L19.0667 7.14697V1.53727L23.2667 1.89136ZM8.66667 6.74229L0 6.40505V0.809048C0.000192261 0.335731 0.400404 -0.036411 0.866667 0.00284387L8.66667 0.660453V6.74229Z" fill="rgba(10,0,7,0)"/>
</svg>
