<svg width="19" height="20" viewBox="0 0 19 20" fill="none" xmlns="http://www.w3.org/2000/svg">
<path d="M1.07691 5.27793C0.548023 4.98128 0.534497 4.16929 1.05438 3.9254L9.22962 0.0901529C9.6819 -0.122026 10.2137 0.266504 10.2228 0.815811L10.3644 9.31587C10.3736 9.86517 9.85385 10.2008 9.39374 9.94274L1.07691 5.27793Z" fill="rgba(10,0,7,0)"/>
<path d="M5.43416 4.27699C6.14808 5.40309 6.86199 6.52919 7.57591 7.65529C7.86487 7.45349 8.17735 7.27291 8.50706 7.11728C10.8573 5.98029 14.1026 6.26972 15.6767 8.45484C18.4767 11.8224 13.7357 16.9048 8.87457 17.248C8.41836 17.3022 7.95835 17.328 7.49222 17.3244C7.48306 17.4878 7.4739 17.6512 7.46473 17.8146C7.94967 17.8769 8.43606 17.9089 8.9262 17.9103C11.5821 17.9135 14.3061 17.0331 16.3612 15.1833C18.4423 13.4587 19.6095 9.91465 17.9041 7.15931C15.9008 3.44964 10.8247 2.31419 7.03515 3.61279C6.48727 3.78902 5.95126 4.00997 5.43416 4.27699Z" fill="rgba(10,0,7,0)"/>
</svg>
