<svg width="20" height="20" viewBox="0 0 20 20" fill="none" xmlns="http://www.w3.org/2000/svg">
<path d="M18.9188 5.27793C19.4771 4.98128 19.4913 4.16929 18.9426 3.9254L10.3132 0.0901529C9.83575 -0.122026 9.27442 0.266504 9.26476 0.815811L9.1153 9.31587C9.10564 9.86517 9.65424 10.2008 10.1399 9.94274L18.9188 5.27793Z" fill="rgba(10,0,7,0)"/>
<path d="M14.3014 4.30398C13.5599 5.41209 12.8184 6.52019 12.0768 7.6283C11.7679 7.42485 11.4346 7.24301 11.0835 7.08624C8.59473 5.94648 5.13542 6.21431 3.46213 8.42959C0.514182 11.894 5.6078 16.9161 10.698 17.2555C11.1779 17.3089 11.6624 17.3341 12.1535 17.3299C12.1589 17.4896 12.1643 17.6494 12.1697 17.8092C11.6583 17.8708 11.1459 17.9021 10.6307 17.9032C7.83326 17.9033 4.99638 17.0339 2.84158 15.2179C0.673897 13.5342 -0.643202 10.0122 1.20265 7.18456C3.39068 3.41099 8.75167 2.38381 12.646 3.65246C13.2131 3.82603 13.7671 4.04278 14.3014 4.30398Z" fill="rgba(10,0,7,0)"/>
</svg>
