<svg width="14" height="14" viewBox="0 0 14 14" fill="none" xmlns="http://www.w3.org/2000/svg">
<path d="M3.72763 11.1966C3.56803 11.1966 3.41072 11.2262 3.25569 11.2855C3.14169 11.3311 3.02542 11.379 2.90686 11.4291L2.68116 11.5249C2.56716 11.575 2.45089 11.6229 2.33233 11.6685C2.1773 11.7278 2.01999 11.7574 1.86039 11.7574C1.7236 11.7574 1.59821 11.7301 1.48421 11.6753C1.37022 11.6161 1.26762 11.534 1.17643 11.4291C1.11715 11.3607 1.04647 11.2695 0.964395 11.1555C0.886879 11.0415 0.804803 10.9161 0.718167 10.7793C0.631531 10.6425 0.544895 10.4989 0.458259 10.3484C0.371623 10.1934 0.294106 10.0452 0.22571 9.90386C0.161872 9.75795 0.109435 9.62115 0.0683968 9.49348C0.0273587 9.3658 0.00683968 9.25865 0.00683968 9.17201C0.00683968 9.00786 0.0478778 8.86195 0.129954 8.73427C0.21203 8.60204 0.312345 8.48349 0.4309 8.37861C0.554014 8.26918 0.686248 8.16658 0.827601 8.07082C0.973515 7.97507 1.10575 7.87475 1.2243 7.76988C1.34742 7.66044 1.45001 7.54645 1.53209 7.42789C1.61416 7.30478 1.6552 7.16343 1.6552 7.00383C1.6552 6.8488 1.61416 6.70973 1.53209 6.58661C1.45001 6.4635 1.34742 6.3495 1.2243 6.24463C1.10119 6.13519 0.968955 6.03032 0.827601 5.93C0.686248 5.82969 0.554014 5.72481 0.4309 5.61538C0.307786 5.50138 0.20519 5.38055 0.123114 5.25288C0.0410381 5.1252 0 4.97929 0 4.81514C0 4.73306 0.020519 4.62818 0.0615571 4.50051C0.107155 4.37284 0.164152 4.23604 0.232549 4.09013C0.300946 3.94422 0.378462 3.79602 0.465098 3.64555C0.556294 3.49052 0.64521 3.3446 0.731846 3.20781C0.823042 3.06646 0.909678 2.93878 0.991754 2.82479C1.07383 2.71079 1.14451 2.62188 1.20378 2.55804C1.29498 2.45773 1.39758 2.38021 1.51157 2.32549C1.63012 2.27077 1.75552 2.24342 1.88775 2.24342C2.04734 2.24342 2.20238 2.27305 2.35285 2.33233C2.50332 2.39161 2.6538 2.45773 2.80427 2.53068C2.95474 2.59908 3.10522 2.66292 3.25569 2.72219C3.41072 2.78147 3.56803 2.81111 3.72763 2.81111C3.93282 2.81111 4.10837 2.74955 4.25428 2.62644C4.40476 2.49876 4.49823 2.33461 4.53471 2.13398L4.78094 0.793403C4.81742 0.601892 4.89949 0.444579 5.02717 0.321465C5.1594 0.198351 5.32127 0.118554 5.51278 0.0820762C5.69518 0.0501577 5.87985 0.0296386 6.0668 0.020519C6.25375 0.00683968 6.43842 0 6.62081 0C6.81232 0 7.00383 0.00683968 7.19535 0.020519C7.38686 0.0341984 7.57609 0.0592772 7.76304 0.0957555C7.95455 0.132234 8.11186 0.21203 8.23498 0.335144C8.35809 0.458259 8.43789 0.615571 8.47437 0.807082C8.49716 0.916517 8.51768 1.02823 8.53592 1.14223L8.64536 1.79884C8.66816 1.90827 8.68868 2.01999 8.70691 2.13398C8.74339 2.33005 8.83687 2.49192 8.98734 2.6196C9.13782 2.74727 9.31337 2.81111 9.514 2.81111C9.67359 2.81111 9.8309 2.78147 9.98594 2.72219C10.1045 2.6766 10.2208 2.62872 10.3348 2.57856L10.5605 2.4828C10.679 2.43265 10.7953 2.38477 10.9093 2.33917C11.0643 2.27989 11.2216 2.25026 11.3812 2.25026C11.5226 2.25026 11.648 2.27989 11.7574 2.33917C11.8714 2.39389 11.974 2.47369 12.0652 2.57856C12.1245 2.64696 12.1929 2.73815 12.2704 2.85215C12.3525 2.96614 12.4368 3.09154 12.5235 3.22833C12.6101 3.36512 12.6967 3.51104 12.7834 3.66607C12.87 3.81654 12.9452 3.96474 13.0091 4.11065C13.0775 4.252 13.1322 4.38652 13.1732 4.51419C13.2143 4.64186 13.2348 4.74902 13.2348 4.83566C13.2348 5.00437 13.1937 5.15256 13.1117 5.28023C13.0296 5.40791 12.927 5.52646 12.8039 5.6359C12.6853 5.74077 12.5531 5.84109 12.4072 5.93684C12.2658 6.0326 12.1336 6.13519 12.0105 6.24463C11.8919 6.3495 11.7916 6.4635 11.7095 6.58661C11.6275 6.70517 11.5864 6.84424 11.5864 7.00383C11.5864 7.15887 11.6275 7.29794 11.7095 7.42105C11.7916 7.54417 11.8942 7.66044 12.0173 7.76988C12.1404 7.87475 12.2727 7.97735 12.414 8.07766C12.5554 8.17798 12.6876 8.28514 12.8107 8.39913C12.9338 8.50856 13.0364 8.62712 13.1185 8.75479C13.2006 8.88247 13.2416 9.02838 13.2416 9.19253C13.2416 9.28373 13.2188 9.39316 13.1732 9.52084C13.1322 9.64395 13.0775 9.77847 13.0091 9.92438C12.9407 10.0703 12.8609 10.2185 12.7697 10.369C12.6831 10.5194 12.5941 10.6631 12.5029 10.7999C12.4163 10.9367 12.3297 11.062 12.243 11.176C12.161 11.29 12.0903 11.3812 12.031 11.4496C11.9398 11.5499 11.8372 11.6275 11.7232 11.6822C11.6138 11.7369 11.4929 11.7643 11.3607 11.7643C11.2102 11.7643 11.0552 11.7346 10.8956 11.6753C10.7406 11.6161 10.5855 11.5522 10.4305 11.4838C10.2755 11.4109 10.1204 11.3448 9.96542 11.2855C9.81038 11.2262 9.65991 11.1966 9.514 11.1966C9.31337 11.1966 9.15833 11.2376 9.0489 11.3197C8.93946 11.4017 8.85511 11.5089 8.79583 11.6411C8.73655 11.7688 8.69324 11.9124 8.66588 12.072C8.64308 12.2271 8.618 12.3775 8.59064 12.5235L8.46069 13.2143C8.42421 13.4103 8.34213 13.5699 8.21446 13.693C8.08678 13.8116 7.92491 13.8891 7.72884 13.9256C7.54645 13.9575 7.36178 13.9803 7.17483 13.994C6.99243 14.0031 6.80776 14.0077 6.62081 14.0077C6.4293 14.0077 6.23779 14.0008 6.04628 13.9871C5.85477 13.9735 5.66554 13.9484 5.47859 13.9119C5.28707 13.8754 5.12976 13.7956 5.00665 13.6725C4.88353 13.5449 4.80374 13.3853 4.76726 13.1937C4.73534 13.0296 4.7057 12.8654 4.67834 12.7013L4.62362 12.3661C4.59627 12.202 4.56663 12.0378 4.53471 11.8737C4.49823 11.6776 4.40476 11.5157 4.25428 11.3881C4.10381 11.2604 3.92826 11.1966 3.72763 11.1966ZM7.59889 13.0638C7.61713 12.9635 7.63764 12.8404 7.66044 12.6944C7.68324 12.544 7.70832 12.3912 7.73568 12.2362C7.76304 12.0812 7.79268 11.933 7.8246 11.7916C7.85651 11.6503 7.88843 11.5363 7.92035 11.4496C8.04803 11.1076 8.25322 10.8341 8.53592 10.6289C8.81863 10.4237 9.14466 10.3211 9.514 10.3211C9.63711 10.3211 9.77847 10.3439 9.93806 10.3895C10.1022 10.4305 10.2686 10.4807 10.4374 10.54C10.6106 10.5992 10.7771 10.6608 10.9367 10.7246C11.0962 10.7885 11.2376 10.8432 11.3607 10.8888C11.575 10.6334 11.7643 10.3644 11.9284 10.0817C12.0926 9.79443 12.2362 9.49804 12.3593 9.19253L11.3128 8.29653C11.1213 8.13694 10.9731 7.94543 10.8683 7.722C10.7634 7.49401 10.7109 7.25462 10.7109 7.00383C10.7109 6.75305 10.7634 6.51366 10.8683 6.28567C10.9777 6.05768 11.1282 5.86389 11.3197 5.70429L12.3525 4.84249C12.3525 4.83793 12.3433 4.80602 12.3251 4.76042C12.3069 4.71026 12.2955 4.6829 12.2909 4.67834C12.1815 4.39564 12.0492 4.12661 11.8942 3.87126C11.7437 3.61135 11.5727 3.36284 11.3812 3.12573L10.0885 3.59083C9.90614 3.65467 9.71919 3.68659 9.52768 3.68659C9.21761 3.68659 8.93262 3.61135 8.67272 3.46088C8.45385 3.33776 8.27146 3.17361 8.12554 2.96842C7.98419 2.76323 7.89071 2.53752 7.84512 2.29129L7.61257 0.957555C7.28426 0.902838 6.95368 0.875479 6.62081 0.875479C6.45666 0.875479 6.29251 0.882319 6.12836 0.895998C5.9642 0.905118 5.80233 0.921077 5.64274 0.943876C5.6017 1.17187 5.56294 1.39758 5.52646 1.621C5.48998 1.84443 5.44667 2.06786 5.39651 2.29129C5.35547 2.49192 5.28479 2.67888 5.18448 2.85215C5.08416 3.02086 4.96105 3.16677 4.81514 3.28989C4.66922 3.413 4.50507 3.51104 4.32268 3.58399C4.14029 3.65239 3.94422 3.68659 3.73447 3.68659C3.52928 3.68659 3.33548 3.65239 3.15309 3.58399L1.88775 3.1189C1.678 3.3788 1.48193 3.65011 1.31322 3.93282C1.14451 4.21096 1.00087 4.50507 0.882319 4.81514L1.92879 5.71113C2.1203 5.87073 2.26849 6.06452 2.37337 6.29251C2.47824 6.51594 2.53068 6.75305 2.53068 7.00383C2.53068 7.25462 2.47596 7.49401 2.36653 7.722C2.26165 7.94999 2.11346 8.14378 1.92195 8.30337L0.889159 9.16517C0.889159 9.16973 0.898278 9.20393 0.916517 9.25409C0.934757 9.29969 0.946156 9.32477 0.950716 9.32933C1.06015 9.61203 1.1901 9.88334 1.34058 10.1432C1.49561 10.3986 1.66888 10.6448 1.86039 10.8819L3.15309 10.4168C3.33548 10.353 3.52244 10.3211 3.71395 10.3211C4.02401 10.3211 4.309 10.3963 4.56891 10.5468C4.78778 10.6699 4.96789 10.8341 5.10924 11.0392C5.25516 11.2444 5.35091 11.4701 5.39651 11.7164L5.62906 13.0501C5.95736 13.1048 6.28795 13.1322 6.62081 13.1322C6.78496 13.1322 6.94912 13.1276 7.11327 13.1185C7.27742 13.1048 7.43929 13.0866 7.59889 13.0638ZM3.99437 7.00383C3.99437 6.63905 4.06277 6.29707 4.19956 5.97788C4.33636 5.6587 4.52331 5.38055 4.76042 5.14344C4.99753 4.90633 5.27567 4.71938 5.59486 4.58259C5.91404 4.44579 6.25603 4.3774 6.62081 4.3774C6.9856 4.3774 7.32758 4.44579 7.64676 4.58259C7.96595 4.71938 8.2441 4.90633 8.48121 5.14344C8.71832 5.38055 8.90527 5.6587 9.04206 5.97788C9.17885 6.29707 9.24725 6.63905 9.24725 7.00383C9.24725 7.36862 9.17885 7.7106 9.04206 8.02979C8.90527 8.34897 8.71832 8.62712 8.48121 8.86423C8.2441 9.10134 7.96595 9.28829 7.64676 9.42508C7.32758 9.56188 6.9856 9.63027 6.62081 9.63027C6.25603 9.63027 5.91404 9.56188 5.59486 9.42508C5.27567 9.28829 4.99753 9.10134 4.76042 8.86423C4.52331 8.62712 4.33636 8.34897 4.19956 8.02979C4.06277 7.7106 3.99437 7.36862 3.99437 7.00383ZM8.37177 7.00383C8.37177 6.76217 8.32617 6.53646 8.23498 6.32671C8.14378 6.1124 8.01839 5.92544 7.85879 5.76585C7.6992 5.60626 7.51225 5.48087 7.29794 5.38967C7.08819 5.29847 6.86248 5.25288 6.62081 5.25288C6.37914 5.25288 6.15115 5.29847 5.93684 5.38967C5.72709 5.48087 5.54242 5.60626 5.38283 5.76585C5.22324 5.92544 5.09784 6.1124 5.00665 6.32671C4.91545 6.53646 4.86985 6.76217 4.86985 7.00383C4.86985 7.2455 4.91545 7.47349 5.00665 7.6878C5.09784 7.89755 5.22324 8.08222 5.38283 8.24182C5.54242 8.40141 5.72709 8.5268 5.93684 8.618C6.15115 8.7092 6.37914 8.75479 6.62081 8.75479C6.86248 8.75479 7.08819 8.7092 7.29794 8.618C7.51225 8.5268 7.6992 8.40141 7.85879 8.24182C8.01839 8.08222 8.14378 7.89755 8.23498 7.6878C8.32617 7.47349 8.37177 7.2455 8.37177 7.00383Z" fill="rgba(10,0,7,0)"/>
<path fill-rule="evenodd" clip-rule="evenodd" d="M7.66044 12.6944C7.63764 12.8404 7.61713 12.9635 7.59889 13.0638C7.43929 13.0866 7.27742 13.1048 7.11327 13.1185C6.94912 13.1276 6.78496 13.1322 6.62081 13.1322C6.28795 13.1322 5.95736 13.1048 5.62906 13.0501L5.39651 11.7164C5.35091 11.4701 5.25516 11.2444 5.10924 11.0392C4.96789 10.8341 4.78778 10.6699 4.56891 10.5468C4.309 10.3963 4.02401 10.3211 3.71395 10.3211C3.52244 10.3211 3.33548 10.353 3.15309 10.4168L1.86039 10.8819C1.66888 10.6448 1.49561 10.3986 1.34058 10.1432C1.1901 9.88334 1.06015 9.61203 0.950716 9.32933C0.946156 9.32477 0.934757 9.29969 0.916517 9.25409C0.898278 9.20393 0.889159 9.16973 0.889159 9.16517L1.92195 8.30337C2.11346 8.14378 2.26165 7.94999 2.36653 7.722C2.47596 7.49401 2.53068 7.25462 2.53068 7.00383C2.53068 6.75305 2.47824 6.51594 2.37337 6.29251C2.26849 6.06452 2.1203 5.87073 1.92879 5.71113L0.882319 4.81514C1.00087 4.50507 1.14451 4.21096 1.31322 3.93282C1.48193 3.65011 1.678 3.3788 1.88775 3.1189L3.15309 3.58399C3.33548 3.65239 3.52928 3.68659 3.73447 3.68659C3.94422 3.68659 4.14029 3.65239 4.32268 3.58399C4.50507 3.51104 4.66922 3.413 4.81514 3.28989C4.96105 3.16677 5.08416 3.02086 5.18448 2.85215C5.28479 2.67888 5.35547 2.49192 5.39651 2.29129C5.44667 2.06786 5.48998 1.84443 5.52646 1.621C5.56294 1.39758 5.6017 1.17187 5.64274 0.943876C5.80233 0.921077 5.9642 0.905118 6.12836 0.895998C6.29251 0.882319 6.45666 0.875479 6.62081 0.875479C6.95368 0.875479 7.28426 0.902838 7.61257 0.957555L7.84512 2.29129C7.89071 2.53752 7.98419 2.76323 8.12554 2.96842C8.27146 3.17361 8.45385 3.33776 8.67272 3.46088C8.93262 3.61135 9.21761 3.68659 9.52768 3.68659C9.71919 3.68659 9.90614 3.65467 10.0885 3.59083L11.3812 3.12573C11.5727 3.36284 11.7437 3.61135 11.8942 3.87126C12.0492 4.12661 12.1815 4.39564 12.2909 4.67834C12.2955 4.6829 12.3069 4.71026 12.3251 4.76042C12.3433 4.80602 12.3525 4.83793 12.3525 4.84249L11.3197 5.70429C11.1282 5.86389 10.9777 6.05768 10.8683 6.28567C10.7634 6.51366 10.7109 6.75305 10.7109 7.00383C10.7109 7.25462 10.7634 7.49401 10.8683 7.722C10.9731 7.94543 11.1213 8.13694 11.3128 8.29653L12.3593 9.19253C12.2362 9.49804 12.0926 9.79443 11.9284 10.0817C11.7643 10.3644 11.575 10.6334 11.3607 10.8888C11.2376 10.8432 11.0962 10.7885 10.9367 10.7246C10.7771 10.6608 10.6106 10.5992 10.4374 10.54C10.2686 10.4807 10.1022 10.4305 9.93806 10.3895C9.77847 10.3439 9.63711 10.3211 9.514 10.3211C9.14466 10.3211 8.81863 10.4237 8.53592 10.6289C8.25322 10.8341 8.04803 11.1076 7.92035 11.4496C7.88843 11.5363 7.85651 11.6503 7.8246 11.7916C7.79268 11.933 7.76304 12.0812 7.73568 12.2362C7.70832 12.3912 7.68324 12.544 7.66044 12.6944ZM3.99437 7.00383C3.99437 6.63905 4.06277 6.29707 4.19956 5.97788C4.33636 5.6587 4.52331 5.38055 4.76042 5.14344C4.99753 4.90633 5.27567 4.71938 5.59486 4.58259C5.91404 4.44579 6.25603 4.3774 6.62081 4.3774C6.9856 4.3774 7.32758 4.44579 7.64676 4.58259C7.96595 4.71938 8.2441 4.90633 8.48121 5.14344C8.71832 5.38055 8.90527 5.6587 9.04206 5.97788C9.17885 6.29707 9.24725 6.63905 9.24725 7.00383C9.24725 7.36862 9.17885 7.7106 9.04206 8.02979C8.90527 8.34897 8.71832 8.62712 8.48121 8.86423C8.2441 9.10134 7.96595 9.28829 7.64676 9.42508C7.32758 9.56188 6.9856 9.63027 6.62081 9.63027C6.25603 9.63027 5.91404 9.56188 5.59486 9.42508C5.27567 9.28829 4.99753 9.10134 4.76042 8.86423C4.52331 8.62712 4.33636 8.34897 4.19956 8.02979C4.06277 7.7106 3.99437 7.36862 3.99437 7.00383Z" fill="rgba(10,0,7,0)"/>
</svg>
