<svg width="23" height="24" viewBox="0 0 23 24" fill="none" xmlns="http://www.w3.org/2000/svg">
<path d="M5.65496 19.3359C5.92424 19.2344 6.19749 19.1836 6.47469 19.1836C6.82318 19.1836 7.1281 19.293 7.38946 19.5117C7.65083 19.7305 7.81319 20.0078 7.87655 20.3438C7.93199 20.625 7.98347 20.9062 8.03099 21.1875L8.12603 21.7617C8.17355 22.043 8.22503 22.3242 8.28047 22.6055C8.34384 22.9336 8.48244 23.207 8.69628 23.4258C8.91012 23.6367 9.18337 23.7734 9.51601 23.8359C9.84074 23.8984 10.1694 23.9414 10.5021 23.9648C10.8347 23.9883 11.1674 24 11.5 24C11.8247 24 12.1455 23.9922 12.4623 23.9766C12.787 23.9531 13.1078 23.9141 13.4246 23.8594C13.7652 23.7969 14.0463 23.6641 14.2681 23.4609C14.4898 23.25 14.6324 22.9766 14.6958 22.6406L14.9215 21.457C14.969 21.207 15.0126 20.9492 15.0522 20.6836C15.0997 20.4102 15.1749 20.1641 15.2779 19.9453C15.3809 19.7188 15.5274 19.5352 15.7175 19.3945C15.9075 19.2539 16.1768 19.1836 16.5253 19.1836C16.7788 19.1836 17.0401 19.2344 17.3094 19.3359C17.5787 19.4375 17.848 19.5508 18.1173 19.6758C18.3865 19.793 18.6558 19.9023 18.9251 20.0039C19.2023 20.1055 19.4716 20.1562 19.733 20.1562C19.9626 20.1562 20.1725 20.1094 20.3626 20.0156C20.5606 19.9219 20.7388 19.7891 20.8972 19.6172C21.0002 19.5 21.1229 19.3437 21.2655 19.1484C21.416 18.9531 21.5665 18.7383 21.7169 18.5039C21.8753 18.2695 22.0298 18.0234 22.1803 17.7656C22.3387 17.5078 22.4773 17.2539 22.5961 17.0039C22.7149 16.7539 22.8099 16.5234 22.8812 16.3125C22.9604 16.0937 23 15.9062 23 15.75C23 15.4687 22.9287 15.2187 22.7862 15C22.6436 14.7812 22.4654 14.5781 22.2516 14.3906C22.0377 14.1953 21.808 14.0117 21.5625 13.8398C21.317 13.668 21.0873 13.4922 20.8735 13.3125C20.6596 13.125 20.4814 12.9258 20.3388 12.7148C20.1963 12.5039 20.125 12.2656 20.125 12C20.125 11.7266 20.1963 11.4883 20.3388 11.2852C20.4814 11.0742 20.6556 10.8789 20.8616 10.6992C21.0754 10.5117 21.3051 10.3359 21.5506 10.1719C21.8041 10.0078 22.0337 9.83594 22.2397 9.65625C22.4535 9.46875 22.6317 9.26562 22.7743 9.04687C22.9168 8.82812 22.9881 8.57422 22.9881 8.28516C22.9881 8.13672 22.9525 7.95312 22.8812 7.73437C22.8099 7.51562 22.7149 7.28516 22.5961 7.04297C22.4852 6.79297 22.3545 6.53906 22.204 6.28125C22.0535 6.01562 21.9031 5.76562 21.7526 5.53125C21.6021 5.29687 21.4556 5.08203 21.313 4.88672C21.1784 4.69141 21.0596 4.53516 20.9566 4.41797C20.7982 4.23828 20.62 4.10156 20.422 4.00781C20.2319 3.90625 20.0141 3.85547 19.7686 3.85547C19.4914 3.85547 19.2181 3.90625 18.9489 4.00781C18.7509 4.08594 18.5489 4.16797 18.343 4.25391L17.9509 4.41797C17.7529 4.50391 17.551 4.58594 17.345 4.66406C17.0758 4.76562 16.8025 4.81641 16.5253 4.81641C16.1768 4.81641 15.8719 4.70703 15.6105 4.48828C15.3492 4.26953 15.1868 3.99219 15.1235 3.65625C15.0918 3.46094 15.0561 3.26953 15.0165 3.08203L14.8264 1.95703C14.7948 1.76172 14.7591 1.57031 14.7195 1.38281C14.6562 1.05469 14.5176 0.785156 14.3037 0.574219C14.0899 0.363281 13.8166 0.226563 13.484 0.164062C13.1593 0.101562 12.8306 0.0585937 12.4979 0.0351562C12.1653 0.0117188 11.8326 0 11.5 0C11.1832 0 10.8624 0.0117188 10.5377 0.0351562C10.213 0.0507812 9.89222 0.0859375 9.57541 0.140625C9.24277 0.203125 8.96161 0.339844 8.73192 0.550781C8.51016 0.761719 8.3676 1.03125 8.30424 1.35937L7.87655 3.65625C7.81319 4 7.65083 4.28125 7.38946 4.5C7.13602 4.71094 6.8311 4.81641 6.47469 4.81641C6.19749 4.81641 5.92424 4.76562 5.65496 4.66406C5.3936 4.5625 5.13223 4.45312 4.87087 4.33594C4.6095 4.21094 4.34814 4.09766 4.08678 3.99609C3.82541 3.89453 3.55613 3.84375 3.27893 3.84375C3.04924 3.84375 2.83144 3.89062 2.62552 3.98437C2.42751 4.07812 2.24931 4.21094 2.09091 4.38281C1.98795 4.49219 1.86519 4.64453 1.72262 4.83984C1.58006 5.03516 1.42958 5.25391 1.27118 5.49609C1.1207 5.73047 0.966253 5.98047 0.807851 6.24609C0.657369 6.50391 0.522727 6.75781 0.403926 7.00781C0.285124 7.25781 0.186123 7.49219 0.106921 7.71094C0.0356405 7.92969 0 8.10938 0 8.25C0 8.53125 0.071281 8.78125 0.213843 9C0.356405 9.21875 0.534607 9.42578 0.74845 9.62109C0.962293 9.80859 1.19198 9.98828 1.4375 10.1602C1.68302 10.332 1.91271 10.5117 2.12655 10.6992C2.34039 10.8789 2.51859 11.0742 2.66116 11.2852C2.80372 11.4961 2.875 11.7344 2.875 12C2.875 12.2734 2.80372 12.5156 2.66116 12.7266C2.51859 12.9297 2.34039 13.125 2.12655 13.3125C1.92063 13.4922 1.69094 13.6641 1.4375 13.8281C1.19198 13.9922 0.962293 14.168 0.74845 14.3555C0.542528 14.5352 0.368285 14.7383 0.225723 14.9648C0.0831611 15.1836 0.0118802 15.4336 0.0118802 15.7148C0.0118802 15.8633 0.0475207 16.0469 0.118802 16.2656C0.190083 16.4844 0.281164 16.7188 0.392045 16.9688C0.510847 17.2109 0.645489 17.4648 0.795971 17.7305C0.946453 17.9883 1.09694 18.2344 1.24742 18.4688C1.3979 18.7031 1.54046 18.918 1.6751 19.1133C1.81767 19.3086 1.94043 19.4648 2.04339 19.582C2.20179 19.7617 2.37999 19.9023 2.578 20.0039C2.776 20.0977 2.9938 20.1445 3.23141 20.1445C3.50861 20.1445 3.78185 20.0938 4.05114 19.9922C4.25706 19.9141 4.45902 19.832 4.65702 19.7461L5.04907 19.582C5.25499 19.4961 5.45696 19.4141 5.65496 19.3359ZM14.3037 10.8398C14.4621 11.1992 14.5413 11.5859 14.5413 12C14.5413 12.4141 14.4621 12.8047 14.3037 13.1719C14.1453 13.5312 13.9275 13.8477 13.6503 14.1211C13.3731 14.3945 13.0484 14.6094 12.6761 14.7656C12.3118 14.9219 11.9198 15 11.5 15C11.0802 15 10.6842 14.9219 10.312 14.7656C9.94766 14.6094 9.62689 14.3945 9.34969 14.1211C9.07249 13.8477 8.85468 13.5312 8.69628 13.1719C8.53788 12.8047 8.45868 12.4141 8.45868 12C8.45868 11.5859 8.53788 11.1992 8.69628 10.8398C8.85468 10.4727 9.07249 10.1523 9.34969 9.87891C9.62689 9.60547 9.94766 9.39062 10.312 9.23437C10.6842 9.07812 11.0802 9 11.5 9C11.9198 9 12.3118 9.07812 12.6761 9.23437C13.0484 9.39062 13.3731 9.60547 13.6503 9.87891C13.9275 10.1523 14.1453 10.4727 14.3037 10.8398Z" fill="rgba(10,0,7,0)"/>
</svg>
