<svg width="16" height="23" viewBox="0 0 16 23" fill="none" xmlns="http://www.w3.org/2000/svg">
<path d="M8.38428 22.5938C8.0955 22.5938 7.82951 22.5216 7.58632 22.3772C7.35073 22.2252 7.17214 22.0162 7.05054 21.7502L5.14683 17.6008L2.21717 20.5418C2.00438 20.7546 1.74979 20.861 1.4534 20.861C1.14182 20.861 0.879631 20.7584 0.666841 20.5532C0.454051 20.3405 0.347656 20.0783 0.347656 19.7667V1.09435C0.347656 0.782764 0.454051 0.524376 0.666841 0.319185C0.879631 0.106395 1.14182 0 1.4534 0C1.74979 0 2.00438 0.106395 2.21717 0.319185L15.5659 13.668C15.7787 13.8808 15.8851 14.1353 15.8851 14.4317C15.8851 14.7433 15.7787 15.0055 15.5659 15.2183C15.3608 15.4311 15.1024 15.5375 14.7908 15.5375H10.4476L12.1689 19.3791C12.2525 19.5691 12.2943 19.7705 12.2943 19.9833C12.2943 20.2721 12.2183 20.5342 12.0663 20.7698C11.9219 20.9978 11.7205 21.1726 11.4621 21.2942L8.99985 22.457C8.80226 22.5482 8.59707 22.5938 8.38428 22.5938Z" fill="rgba(10,0,7,0)"/>
</svg>
